<?xml version="1.0" encoding="UTF-8"?><svg id="Layer_2" xmlns="http://www.w3.org/2000/svg" viewBox="0 0 83.6 95.99"><g id="Logo"><g><path d="M1.89,11.42h62.72V88.65c0,4.05-3.29,7.34-7.34,7.34H9.23c-4.05,0-7.34-3.29-7.34-7.34V11.42h0Z" fill="#2b2b2b"/><g id="Beer"><rect x="9.91" y="11.42" width="47.29" height="76.64" fill="#f7cd25"/><path d="M41.44,78.54c-7.88,10.56-31.52,2.23-31.52,2.23,0,0,.13,3.34,.38,7.29H57.2V11.42h-10.75c.5,21.88,.52,59.71-5.02,67.12Z" fill="#e5b51f"/></g><g id="Foam"><path d="M65.74,7.32c-.06-4.05-3.36-7.32-7.43-7.32-2.24,0-4.23,1.01-5.59,2.58-.48-.1-.98-.17-1.51-.17-.66,0-1.28,.09-1.85,.24-1.86-1.64-4.28-2.65-6.96-2.65-2.51,0-4.8,.88-6.61,2.35-.62-.27-1.36-.43-2.16-.43-.63,0-1.22,.11-1.75,.28-.94-1.18-2.38-1.95-4.01-1.95-2.25,0-4.14,1.44-4.84,3.45-1.14-.46-2.38-.72-3.68-.72-1.82,0-3.52,.51-4.98,1.37-1.24-.82-3.4-1.37-5.87-1.37-3.86,0-6.99,1.33-6.99,2.97,0,.33,.15,.63,.38,.93-1.14,.62-1.89,1.65-1.89,2.82,0,1.89,1.94,3.42,4.34,3.42,.02,0,.04,0,.06,0,.79,1.23,2.4,2.09,4.28,2.09,.4,0,.77-.05,1.14-.12,1.03,4.31,4.9,7.53,9.53,7.53,2.64,0,5.02-1.05,6.79-2.74,.96,.48,2.04,.75,3.19,.75,2.24,0,4.25-1.03,5.57-2.64,1.91,1.94,4.57,3.14,7.51,3.14,1.66,0,3.23-.39,4.63-1.08,1.1,1.68,2.99,2.8,5.14,2.8,3.39,0,6.14-2.75,6.14-6.14,0-.65-.13-1.26-.31-1.84,.1,0,.21,.02,.31,.02,2.23,0,4.23-.99,5.59-2.55,.49,.31,1.08,.49,1.72,.49,1.67,0,3.02-1.23,3.02-2.75s-1.29-2.69-2.91-2.74Z" fill="#ededed"/><path d="M1.55,12.3c.11-.08,.21-.16,.33-.23-.23-.29-.38-.6-.38-.93,0-1.64,3.13-2.97,6.99-2.97,2.47,0,4.63,.55,5.87,1.37,1.46-.87,3.16-1.37,4.98-1.37,1.3,0,2.54,.26,3.68,.72,.71-2,2.6-3.45,4.84-3.45,1.63,0,3.06,.77,4.01,1.95,.53-.18,1.12-.28,1.75-.28,.8,0,1.53,.16,2.16,.43,1.81-1.46,4.1-2.35,6.61-2.35,2.67,0,5.1,1.01,6.96,2.65,.57-.16,1.19-.24,1.85-.24,.53,0,1.04,.07,1.51,.17,1.36-1.57,3.35-2.58,5.59-2.58,4.07,0,7.37,3.27,7.43,7.32,.29,0,.57,.07,.83,.15,1.2-.36,2.08-1.38,2.08-2.6,0-1.48-1.29-2.69-2.91-2.74-.06-4.05-3.36-7.32-7.43-7.32-2.24,0-4.23,1.01-5.59,2.58-.48-.1-.98-.17-1.51-.17-.66,0-1.28,.09-1.85,.24-1.86-1.64-4.28-2.65-6.96-2.65-2.51,0-4.8,.88-6.61,2.35-.62-.27-1.36-.43-2.16-.43-.63,0-1.22,.11-1.75,.28-.94-1.18-2.38-1.95-4.01-1.95-2.25,0-4.14,1.44-4.84,3.45-1.14-.46-2.38-.72-3.68-.72-1.82,0-3.52,.51-4.98,1.37-1.24-.82-3.4-1.37-5.87-1.37-3.86,0-6.99,1.33-6.99,2.97,0,.33,.15,.63,.38,.93-1.14,.62-1.89,1.65-1.89,2.82,0,1.05,.61,1.98,1.55,2.6Z" fill="#f9f9f9"/><g><path d="M1.89,5.58c-.08-.1-.13-.2-.18-.3-.1,.18-.15,.36-.17,.54,.12-.08,.22-.17,.35-.24Z" fill="#e5e5e5"/><path d="M65.63,11.52c-.64,0-1.23-.18-1.72-.49-1.36,1.56-3.36,2.55-5.59,2.55-.11,0-.21-.01-.31-.02,.13,.42,.22,.86,.26,1.31,.02,0,.03,0,.05,0,2.23,0,4.23-.99,5.59-2.55,.49,.31,1.08,.49,1.72,.49,1.67,0,3.02-1.23,3.02-2.75,0-.22-.04-.44-.09-.65-.32,1.2-1.51,2.1-2.93,2.1Z" fill="#e5e5e5"/></g><g><path d="M65.63,10.22c-.64,0-1.23-.18-1.72-.49-1.36,1.56-3.36,2.55-5.59,2.55-.11,0-.21-.01-.31-.02,.19,.59,.31,1.2,.31,1.84,0,.26-.05,.51-.08,.76,.03,0,.05,0,.08,0,2.23,0,4.23-.99,5.59-2.55,.49,.31,1.08,.49,1.72,.49,1.67,0,3.02-1.23,3.02-2.75,0-.47-.14-.91-.37-1.3-.51,.86-1.5,1.45-2.65,1.45Z" fill="#d6d6d6"/><path d="M52.17,20.24c-2.16,0-4.05-1.12-5.14-2.8-1.4,.68-2.96,1.08-4.63,1.08-2.94,0-5.59-1.2-7.51-3.14-1.32,1.61-3.32,2.64-5.57,2.64-1.15,0-2.22-.27-3.19-.75-1.76,1.69-4.15,2.74-6.79,2.74-4.63,0-8.5-3.21-9.53-7.53-.37,.07-.75,.12-1.14,.12-1.88,0-3.49-.85-4.28-2.09-.02,0-.04,0-.06,0-1.8,0-3.34-.86-4-2.09-.2,.39-.34,.81-.34,1.26,0,1.89,1.94,3.42,4.34,3.42,.02,0,.04,0,.06,0,.79,1.23,2.4,2.09,4.28,2.09,.4,0,.77-.05,1.14-.12,1.03,4.31,4.9,7.53,9.53,7.53,2.64,0,5.02-1.05,6.79-2.74,.96,.48,2.04,.75,3.19,.75,2.24,0,4.25-1.03,5.57-2.64,1.91,1.94,4.57,3.14,7.51,3.14,1.66,0,3.23-.39,4.63-1.08,1.1,1.68,2.99,2.8,5.14,2.8,3.39,0,6.14-2.75,6.14-6.14,0-.43-.07-.84-.16-1.24-.62,2.74-3.06,4.79-5.98,4.79Z" fill="#d6d6d6"/></g></g><path d="M58.12,24.81v54.33h19.75c3.16,0,5.72-2.56,5.72-5.72V30.54c0-3.16-2.56-5.72-5.72-5.72h-19.75Zm18.99,47.84h-12.51V31.3h12.51v41.36Z" fill="#2b2b2b"/></g></g></svg>