<?xml version="1.0" encoding="UTF-8"?><svg id="Layer_2" xmlns="http://www.w3.org/2000/svg" viewBox="0 0 363.62 275.11"><g id="Logo"><path d="M86.66,221.86C2.98,200.14-43.74,161.16,57.85,115.77c101.59-45.39,218.26-53.32,230.1-102.24,11.85-48.92,110.88,46.43,62.39,100.82-48.49,54.39-102.82,149.25-263.68,107.5Z" fill="#bac9d6"/><path d="M195,120.1c9.97-48.51,0-80.95,0-80.95H125.62s-9.97,32.43,0,80.95c9.97,48.51,14.35,99.77,7.97,118.86-6.38,19.08-13.96,33.3-1.2,33.3h55.82c12.76,0,5.18-14.22-1.2-33.3-6.38-19.08-1.99-70.34,7.97-118.86Z" fill="#faffff"/><path d="M125.62,120.1c9.97,48.51,14.35,99.77,7.97,118.86-6.38,19.08-13.96,33.3-1.2,33.3h55.82c12.76,0,5.18-14.22-1.2-33.3-6.38-19.08-1.99-70.34,7.97-118.86,5.47-26.61,4.94-48.38,3.34-62.61H122.27c-1.59,14.24-2.12,36,3.34,62.61Z" fill="#e5a005"/><path d="M152.01,57.49h-29.73c-1.59,14.24-2.12,36,3.34,62.61,9.97,48.51,14.35,99.77,7.97,118.86-6.38,19.08-13.96,33.3-1.2,33.3h27.91c-1.78-24.9-8.59-68.81-17-111.59-9.96-50.62-1.5-77.74,8.7-103.18Z" fill="#d69209"/><path d="M167.63,272.26h20.59c12.76,0,5.18-14.22-1.2-33.3-6.38-19.08-1.99-70.34,7.97-118.86,5.47-26.61,4.94-48.38,3.34-62.61h-15.72c9.49,72.09-4.96,160.37-15,214.77Z" fill="#f7bc46" opacity=".5"/><path d="M245.89,125.73h-62.58s-11.22,39.01-11.22,52.34c0,57.95,35.64,57.95,35.64,57.95h13.75s35.64,0,35.64-57.95c0-13.33-11.22-52.34-11.22-52.34Z" fill="#efefef"/><path d="M233.42,268c-10.47,0-14.22-3.49-14.22-12.44s2.37-19.55,2.37-19.55h-13.94s2.37,10.6,2.37,19.55-3.75,12.44-14.22,12.44c-16.34,0-29.18,7.11-20.33,7.11h78.29c8.86,0-3.99-7.11-20.33-7.11Z" fill="#d9f7ff"/><path d="M172.09,178.07c0,57.95,35.64,57.95,35.64,57.95h13.75s35.64,0,35.64-57.95c0-9.35-5.53-31.35-8.82-43.64h-67.38c-3.3,12.29-8.82,34.28-8.82,43.64Z" fill="#2f2234"/><path d="M214.65,270.9c2.52-4.21,4-9.1,4.59-13.96-.02-.45-.03-.91-.03-1.38,0-1.87,.1-3.8,.27-5.7-.32-5.67-1.86-10.73-4.36-13.85h-7.48s2.37,10.6,2.37,19.55-3.75,12.44-14.22,12.44c-16.34,0-29.18,7.11-20.33,7.11h36.12c.99-1.13,2.07-2.53,3.08-4.21Z" fill="#faffff"/><path d="M257.12,178.07c0-1.59-.16-3.55-.44-5.75,0,0-6.19,29.47-42.07,29.47s-42.07-29.47-42.07-29.47c-.28,2.21-.44,4.17-.44,5.75,0,57.95,35.64,57.95,35.64,57.95h13.75s35.64,0,35.64-57.95Z" fill="#192026"/><path d="M234.25,232.18c10.23-5.64,22.87-19.6,22.87-54.11,0-9.35-5.53-31.35-8.82-43.64h-25.04c10.07,26.95,19.82,65.19,11,97.75Z" fill="#423549" opacity=".5"/><g id="Foam"><path d="M245.35,124.94c-.06-3.92-3.25-7.08-7.18-7.08-2.17,0-4.09,.97-5.41,2.49-.46-.1-.95-.17-1.46-.17-.63,0-1.24,.09-1.79,.24-1.8-1.59-4.14-2.56-6.73-2.56-2.42,0-4.64,.85-6.39,2.27-.6-.26-1.32-.42-2.08-.42-.61,0-1.18,.1-1.69,.27-.91-1.14-2.3-1.88-3.87-1.88-2.17,0-4,1.4-4.68,3.33-1.1-.45-2.3-.7-3.56-.7-1.76,0-3.4,.49-4.82,1.32-1.2-.8-3.29-1.32-5.68-1.32-3.73,0-6.76,1.29-6.76,2.87,0,.31,.15,.61,.37,.9-1.1,.6-1.82,1.59-1.82,2.72,0,1.83,1.88,3.31,4.19,3.31,.02,0,.04,0,.05,0,.76,1.19,2.32,2.02,4.14,2.02,.38,0,.75-.05,1.1-.11,1,4.17,4.74,7.27,9.22,7.27,2.55,0,4.86-1.01,6.56-2.65,.93,.46,1.97,.73,3.08,.73,2.17,0,4.11-.99,5.38-2.55,1.85,1.87,4.42,3.03,7.26,3.03,1.61,0,3.12-.38,4.47-1.04,1.06,1.63,2.89,2.71,4.97,2.71,3.28,0,5.94-2.66,5.94-5.94,0-.63-.12-1.22-.3-1.78,.1,0,.2,.02,.3,.02,2.16,0,4.09-.96,5.41-2.46,.47,.3,1.05,.48,1.67,.48,1.61,0,2.92-1.19,2.92-2.66s-1.25-2.6-2.81-2.65Z" fill="#ededed"/><path d="M183.31,129.74c.11-.07,.2-.16,.32-.22-.22-.28-.37-.58-.37-.9,0-1.59,3.02-2.87,6.76-2.87,2.39,0,4.47,.53,5.68,1.32,1.41-.84,3.06-1.32,4.82-1.32,1.26,0,2.46,.25,3.56,.7,.68-1.94,2.51-3.33,4.68-3.33,1.57,0,2.96,.74,3.87,1.88,.51-.17,1.08-.27,1.69-.27,.77,0,1.48,.16,2.08,.42,1.75-1.41,3.97-2.27,6.39-2.27,2.58,0,4.93,.98,6.73,2.56,.55-.15,1.15-.24,1.79-.24,.51,0,1,.07,1.46,.17,1.32-1.52,3.24-2.49,5.41-2.49,3.93,0,7.12,3.16,7.18,7.08,.28,0,.55,.07,.81,.14,1.16-.35,2.01-1.34,2.01-2.51,0-1.43-1.25-2.6-2.81-2.65-.06-3.92-3.25-7.08-7.18-7.08-2.17,0-4.09,.97-5.41,2.49-.46-.1-.95-.17-1.46-.17-.63,0-1.24,.09-1.79,.24-1.8-1.59-4.14-2.56-6.73-2.56-2.42,0-4.64,.85-6.39,2.27-.6-.26-1.32-.42-2.08-.42-.61,0-1.18,.1-1.69,.27-.91-1.14-2.3-1.88-3.87-1.88-2.17,0-4,1.4-4.68,3.33-1.1-.45-2.3-.7-3.56-.7-1.76,0-3.4,.49-4.82,1.32-1.2-.8-3.29-1.32-5.68-1.32-3.73,0-6.76,1.29-6.76,2.87,0,.31,.15,.61,.37,.9-1.1,.6-1.82,1.59-1.82,2.72,0,1.01,.59,1.91,1.5,2.52Z" fill="#f9f9f9"/><g><path d="M183.63,123.25c-.07-.09-.12-.19-.18-.29-.09,.17-.14,.35-.16,.53,.11-.08,.21-.17,.34-.23Z" fill="#e5e5e5"/><path d="M245.24,128.99c-.62,0-1.19-.18-1.67-.48-1.32,1.51-3.25,2.46-5.41,2.46-.1,0-.2-.01-.3-.02,.13,.41,.21,.83,.26,1.27,.02,0,.03,0,.05,0,2.16,0,4.09-.96,5.41-2.46,.47,.3,1.05,.48,1.67,.48,1.61,0,2.92-1.19,2.92-2.66,0-.22-.04-.42-.09-.63-.31,1.16-1.46,2.03-2.83,2.03Z" fill="#e5e5e5"/></g><g><path d="M245.24,127.74c-.62,0-1.19-.18-1.67-.48-1.32,1.51-3.25,2.46-5.41,2.46-.1,0-.2-.01-.3-.02,.18,.57,.3,1.16,.3,1.78,0,.25-.04,.49-.07,.74,.02,0,.05,0,.07,0,2.16,0,4.09-.96,5.41-2.46,.47,.3,1.05,.48,1.67,.48,1.61,0,2.92-1.19,2.92-2.66,0-.46-.14-.88-.36-1.25-.49,.83-1.45,1.4-2.56,1.4Z" fill="#d6d6d6"/><path d="M232.23,137.43c-2.09,0-3.91-1.08-4.97-2.71-1.35,.66-2.87,1.04-4.47,1.04-2.84,0-5.41-1.16-7.26-3.03-1.28,1.56-3.21,2.55-5.38,2.55-1.11,0-2.15-.27-3.08-.73-1.7,1.64-4.01,2.65-6.56,2.65-4.48,0-8.22-3.1-9.22-7.27-.36,.07-.72,.11-1.1,.11-1.82,0-3.37-.83-4.14-2.02-.02,0-.04,0-.05,0-1.74,0-3.23-.83-3.86-2.02-.19,.38-.33,.79-.33,1.22,0,1.83,1.88,3.31,4.19,3.31,.02,0,.04,0,.05,0,.76,1.19,2.32,2.02,4.14,2.02,.38,0,.75-.05,1.1-.11,1,4.17,4.74,7.27,9.22,7.27,2.55,0,4.86-1.01,6.56-2.65,.93,.46,1.97,.73,3.08,.73,2.17,0,4.11-.99,5.38-2.55,1.85,1.87,4.42,3.03,7.26,3.03,1.61,0,3.12-.38,4.47-1.04,1.06,1.63,2.89,2.71,4.97,2.71,3.28,0,5.94-2.66,5.94-5.94,0-.42-.07-.81-.16-1.2-.6,2.65-2.95,4.63-5.78,4.63Z" fill="#d6d6d6"/></g></g><g id="Foam-2"><path d="M125.26,41c.07-5.97,3.66-10.79,8.09-10.79,2.44,0,4.61,1.49,6.09,3.8,.52-.15,1.07-.25,1.65-.25,.71,0,1.39,.13,2.01,.36,2.02-2.42,4.66-3.9,7.57-3.9,2.73,0,5.23,1.3,7.19,3.45,.68-.4,1.48-.64,2.35-.64,.69,0,1.33,.16,1.9,.42,1.03-1.74,2.59-2.87,4.36-2.87,2.44,0,4.5,2.13,5.27,5.08,1.24-.68,2.59-1.06,4.01-1.06,1.98,0,3.83,.74,5.42,2.02,1.35-1.21,3.7-2.02,6.39-2.02,4.2,0,7.61,1.96,7.61,4.38,0,.48-.17,.93-.41,1.36,1.24,.91,2.05,2.43,2.05,4.15,0,2.78-2.11,5.04-4.72,5.04-.02,0-.04,0-.06,0-.86,1.81-2.61,3.07-4.66,3.07-.43,0-.84-.07-1.24-.17-1.12,6.35-5.34,11.08-10.38,11.08-2.87,0-5.47-1.54-7.39-4.03-1.05,.7-2.22,1.11-3.47,1.11-2.44,0-4.62-1.51-6.06-3.89-2.08,2.85-4.97,4.62-8.17,4.62-1.81,0-3.51-.58-5.03-1.59-1.19,2.48-3.25,4.13-5.6,4.13-3.69,0-6.68-4.05-6.68-9.04,0-.95,.14-1.85,.34-2.72-.11,0-.23,.02-.34,.02-2.43,0-4.6-1.46-6.09-3.75-.53,.46-1.18,.73-1.88,.73-1.82,0-3.29-1.81-3.29-4.05s1.41-3.96,3.17-4.04Z" fill="#ededed"/><path d="M195.11,48.32c-.12-.11-.23-.24-.36-.34,.25-.43,.41-.88,.41-1.36,0-2.42-3.41-4.38-7.61-4.38-2.69,0-5.04,.81-6.39,2.02-1.59-1.27-3.44-2.02-5.42-2.02-1.42,0-2.77,.38-4.01,1.06-.77-2.95-2.83-5.08-5.27-5.08-1.77,0-3.33,1.13-4.36,2.87-.58-.26-1.22-.42-1.9-.42-.87,0-1.67,.24-2.35,.64-1.97-2.15-4.46-3.45-7.19-3.45-2.91,0-5.55,1.49-7.57,3.9-.62-.23-1.29-.36-2.01-.36-.58,0-1.13,.1-1.65,.25-1.48-2.31-3.65-3.8-6.09-3.8-4.43,0-8.02,4.82-8.09,10.79-.32,.01-.62,.1-.91,.22-1.31-.53-2.26-2.04-2.26-3.83,0-2.19,1.41-3.96,3.17-4.04,.07-5.97,3.66-10.79,8.09-10.79,2.44,0,4.61,1.49,6.09,3.8,.52-.15,1.07-.25,1.65-.25,.71,0,1.39,.13,2.01,.36,2.02-2.42,4.66-3.9,7.57-3.9,2.73,0,5.23,1.3,7.19,3.45,.68-.4,1.48-.64,2.35-.64,.69,0,1.33,.16,1.9,.42,1.03-1.74,2.59-2.87,4.36-2.87,2.44,0,4.5,2.13,5.27,5.08,1.24-.68,2.59-1.06,4.01-1.06,1.98,0,3.83,.74,5.42,2.02,1.35-1.21,3.7-2.02,6.39-2.02,4.2,0,7.61,1.96,7.61,4.38,0,.48-.17,.93-.41,1.36,1.24,.91,2.05,2.43,2.05,4.15,0,1.54-.67,2.91-1.69,3.83Z" fill="#f9f9f9"/><g><path d="M194.75,38.42c.08-.14,.14-.3,.2-.44,.1,.26,.16,.53,.18,.8-.13-.12-.24-.25-.38-.36Z" fill="#e5e5e5"/><path d="M125.38,47.17c.7,0,1.34-.27,1.88-.73,1.48,2.3,3.66,3.75,6.09,3.75,.12,0,.23-.02,.34-.02-.14,.62-.24,1.27-.29,1.93-.02,0-.04,0-.05,0-2.43,0-4.6-1.46-6.09-3.75-.53,.46-1.18,.73-1.88,.73-1.82,0-3.29-1.81-3.29-4.05,0-.33,.04-.65,.1-.95,.35,1.77,1.64,3.09,3.19,3.09Z" fill="#e5e5e5"/></g><g><path d="M125.38,45.26c.7,0,1.34-.27,1.88-.73,1.48,2.3,3.66,3.75,6.09,3.75,.12,0,.23-.02,.34-.02-.2,.86-.34,1.76-.34,2.72,0,.38,.05,.75,.08,1.12-.03,0-.06,0-.08,0-2.43,0-4.6-1.46-6.09-3.75-.53,.46-1.18,.73-1.88,.73-1.82,0-3.29-1.81-3.29-4.05,0-.7,.16-1.34,.41-1.91,.56,1.27,1.63,2.14,2.88,2.14Z" fill="#d6d6d6"/><path d="M140.03,60.02c2.35,0,4.41-1.65,5.6-4.13,1.52,1.01,3.23,1.59,5.03,1.59,3.2,0,6.09-1.77,8.17-4.62,1.44,2.37,3.62,3.89,6.06,3.89,1.25,0,2.42-.4,3.47-1.11,1.92,2.49,4.52,4.03,7.39,4.03,5.04,0,9.25-4.73,10.38-11.08,.4,.1,.81,.17,1.24,.17,2.05,0,3.8-1.26,4.66-3.07,.02,0,.04,0,.06,0,1.95,0,3.63-1.27,4.35-3.08,.22,.58,.37,1.2,.37,1.86,0,2.78-2.11,5.04-4.72,5.04-.02,0-.04,0-.06,0-.86,1.81-2.61,3.07-4.66,3.07-.43,0-.84-.07-1.24-.17-1.12,6.35-5.34,11.08-10.38,11.08-2.87,0-5.47-1.54-7.39-4.03-1.05,.7-2.22,1.11-3.47,1.11-2.44,0-4.62-1.51-6.06-3.89-2.08,2.85-4.97,4.62-8.17,4.62-1.81,0-3.51-.58-5.03-1.59-1.19,2.48-3.25,4.13-5.6,4.13-3.69,0-6.68-4.05-6.68-9.04,0-.63,.08-1.24,.18-1.83,.67,4.03,3.33,7.05,6.51,7.05Z" fill="#d6d6d6"/></g></g></g></svg>