<?xml version="1.0" encoding="UTF-8"?><svg id="Layer_2" xmlns="http://www.w3.org/2000/svg" viewBox="0 0 557.62 140.85"><g id="Logo"><g id="Beer"><rect x="149.63" y="35.36" width="36.46" height="59.09" fill="#f7cd25"/><path d="M174.85,87.11c-5.62,8.14-22.47,1.72-22.47,1.72,0,0,.1,2.57,.27,5.62h33.44V35.36h-7.66c.36,16.87,.37,46.04-3.58,51.75Z" fill="#e5b51f"/></g><g id="Handle"><path d="M196.36,90.72c2.71,0,4.79-.96,6.24-2.87,1.45-1.91,2.28-4.89,2.48-8.93,.15-1.59,.23-3.97,.23-7.15-.1-4.76-.51-8.46-1.24-11.1-.73-2.64-1.73-4.48-3.01-5.52-1.28-1.05-2.97-1.57-5.08-1.57-.01,0-.02,0-.04,0v37.11l.41,.03Z" fill="none"/><path d="M209.28,59.34c-.58-3.28-1.77-6.04-3.57-8.29-1.81-2.25-4.49-3.52-8.05-3.8-.4-.06-1-.09-1.81-.09-.32,0-.63,.02-.94,.04v7.14h.04c2.11,0,3.8,.41,5.08,1.24,1.28,.83,2.28,2.28,3.01,4.36,.73,2.08,1.14,5,1.24,8.76,0,2.51-.08,4.39-.23,5.64-.2,3.19-1.03,5.54-2.48,7.05-1.45,1.51-3.53,2.27-6.24,2.27l-.41-.02v6.31c.46,.02,.94,.03,1.47,.03,2.36,0,4.46-.29,6.32-.85,2.81-.85,4.78-2.84,5.9-5.94,1.13-3.11,1.69-7.05,1.69-11.84-.1-4.73-.44-8.73-1.02-12.01Z" fill="#191919"/></g><g><path d="M1.2,.75l13.65,.45c0,4.1-.1,14.25-.3,30.45-.2,20-.3,35.7-.3,47.1,0,12.6,.15,22.65,.45,30.15-.6,.7-2.25,1.05-4.95,1.05l-4.65-.15c-.9-.1-2-.15-3.3-.15-.8,0-1.3,.05-1.5,.15,.6-8.1,.9-16.25,.9-24.45,0-6.2-.2-15.5-.6-27.9-.4-12.4-.6-21.75-.6-28.05C0,18.8,.4,9.25,1.2,.75Z" fill="#191919"/><path d="M36.15,34.05c.7-.1,2.1-.1,4.2,0,3,.2,6.3,.3,9.9,.3v.45c0,4.5-.1,11.45-.3,20.85-.3,9.6-.45,19.3-.45,29.1,0,9.2,.2,17.4,.6,24.6-1.4,.3-3.5,.45-6.3,.45h-5.1c-1.8,0-2.9,.05-3.3,.15,.1-2.9,.15-7.3,.15-13.2v-26.1c-.2-7-.3-12.4-.3-16.2,0-6.9,.3-13.65,.9-20.25v-.15Zm-.6-32.25c6.2,.2,10.9,.3,14.1,.3l.45,19.8c-1,.5-2.8,.75-5.4,.75-1.6,0-2.8-.05-3.6-.15-.6,0-1.3-.02-2.1-.08-.8-.05-1.75-.02-2.85,.08,0-1.5-.1-3.95-.3-7.35-.3-6.6-.4-11.05-.3-13.35Z" fill="#191919"/><path d="M105,108.9c-4.2,.8-8.85,1.2-13.95,1.2-2.5,0-4.3-.05-5.4-.15-3.5-.3-6.5-.95-9-1.95-4.2-1.5-7.27-5.05-9.23-10.65-1.95-5.6-2.92-12.2-2.92-19.8,0-12.8,1.73-22.88,5.17-30.23,3.45-7.35,10.12-11.37,20.03-12.07,1.6-.2,2.9-.3,3.9-.3,4.1,0,7.75,.8,10.95,2.4,1.5,.7,2.93,1.53,4.28,2.48,1.35,.95,2.12,1.68,2.32,2.18l.15-3.45c0-.8,.02-1.58,.08-2.33,.05-.75,.12-1.17,.23-1.27,.9-.1,2.35-.15,4.35-.15l9.75,.15c.1,3.6,.15,9.1,.15,16.5,0,8-.05,15.18-.15,21.52-.1,6.35-.2,11.73-.3,16.12-.4,18.2-.6,32-.6,41.4v9.9c-2,.3-4.15,.45-6.45,.45-1.6,0-3.05-.07-4.35-.22-1.3-.15-1.95-.33-1.95-.53v-1.65l-.45-6.15c-.2-3.2-.3-5.9-.3-8.1l.3-18.3c-.2,1.2-2.4,2.2-6.6,3Zm2.62-11.85c1.85-1,3.1-3.02,3.75-6.08,.65-3.05,.98-8.12,.98-15.22,0-6.7-.3-11.9-.9-15.6-.6-3.7-2.03-6.68-4.28-8.93s-5.77-3.57-10.57-3.97c-8-.6-13.45,1.95-16.35,7.65-2.9,5.7-4.35,12.65-4.35,20.85,0,3.4,.4,7.05,1.2,10.95,1.1,3.7,2.52,6.4,4.27,8.1,1.75,1.7,3.83,2.75,6.23,3.15,2.4,.4,6,.6,10.8,.6,4.3,0,7.37-.5,9.23-1.5Z" fill="#191919"/><path d="M183.6,109.8c-.1-1.9-.15-3.47-.15-4.73s-.05-2.32-.15-3.23c-.2,.1-1,.65-2.4,1.65-1.4,1-3.65,1.85-6.75,2.55-5.8,2.1-11.45,3.15-16.95,3.15-6.2,0-10.85-1.5-13.95-4.5-1.7-1.5-2.75-4.02-3.15-7.57-.4-3.55-.65-9.23-.75-17.03v-4.65c0-3.1,.1-7.65,.3-13.65,.3-6,.45-11.7,.45-17.1,0-2.6-.1-5.8-.3-9.6,1.8-.2,4.25-.3,7.35-.3h4.95c.3,3,.45,6.55,.45,10.65l-.15,12.15c0,4,.05,6.9,.15,8.7l.15,4.2c0,3.6,.15,7.8,.45,12.6,.2,3.3,.87,5.8,2.02,7.5,1.15,1.7,2.87,2.85,5.17,3.45,2,.3,3.85,.45,5.55,.45,5.9,0,10.42-1.6,13.57-4.8,3.15-3.2,4.77-7.55,4.88-13.05,.1-3.6-.05-10.15-.45-19.65-.2-4.8-.3-7.95-.3-9.45,0-2.7,.1-6.55,.3-11.55v-.6c1.6-.4,3.12-.65,4.57-.75,1.45-.1,2.33-.15,2.62-.15,2.1,0,3.9-.05,5.4-.15l.15,25.8c.2,11.8,.3,20.65,.3,26.55,0,4.8-.1,12.4-.3,22.8-2.2,0-4.65,.15-7.35,.45-.5,0-1.12,.05-1.88,.15-.75,.1-1.53,.15-2.33,.15-1,0-1.5-.15-1.5-.45Z" fill="#191919"/><path d="M215.4,34.05c.7-.1,2.1-.1,4.2,0,3,.2,6.3,.3,9.9,.3v.45c0,4.5-.1,11.45-.3,20.85-.3,9.6-.45,19.3-.45,29.1,0,9.2,.2,17.4,.6,24.6-1.4,.3-3.5,.45-6.3,.45h-5.1c-1.8,0-2.9,.05-3.3,.15,.1-2.9,.15-7.3,.15-13.2v-26.1c-.2-7-.3-12.4-.3-16.2,0-6.9,.3-13.65,.9-20.25v-.15Zm-.6-32.25c6.2,.2,10.9,.3,14.1,.3l.45,19.8c-1,.5-2.8,.75-5.4,.75-1.6,0-2.8-.05-3.6-.15-.6,0-1.3-.02-2.1-.08-.8-.05-1.75-.02-2.85,.08,0-1.5-.1-3.95-.3-7.35-.3-6.6-.4-11.05-.3-13.35Z" fill="#191919"/><path d="M291.14,6.3v-1.65c.2-.5,2.6-.75,7.2-.75,2.6,0,4.55,.1,5.85,.3V14.1c0,9.5,.2,23.35,.6,41.55,.1,4.5,.2,9.88,.3,16.12,.1,6.25,.15,13.38,.15,21.38,0,7.4-.05,12.9-.15,16.5-3.2,.2-5.85,.3-7.95,.3-2.7,0-4.7-.1-6-.3-.1-.2-.15-1.25-.15-3.15,0-2.6-.25-4.6-.75-6-.7,1.6-1.88,3.2-3.52,4.8-1.65,1.6-3.33,2.55-5.02,2.85-2.7,.9-5.7,1.35-9,1.35-1.6,0-2.8-.05-3.6-.15-7.1-.5-12.45-2.72-16.05-6.67-3.6-3.95-5.98-8.8-7.12-14.55-1.15-5.75-1.83-12.77-2.02-21.08,0-8.4,1.12-15.32,3.38-20.77,2.25-5.45,6.17-8.93,11.77-10.43,3.7-1,7.9-1.5,12.6-1.5,3.8,0,6.75,.25,8.85,.75,2,.3,3.8,.98,5.4,2.03,1.6,1.05,2.85,2.15,3.75,3.3,.9,1.15,1.4,1.98,1.5,2.48l-.15-12.75c0-2.6-.03-4.92-.08-6.98-.05-2.05-.03-3.67,.08-4.88,.1-.5,.12-1.12,.08-1.88-.05-.75-.08-1.42-.08-2.02v-3.15c0-2.3,.05-3.95,.15-4.95Zm-14.55,39.3l-2.85-.15c-5.4,0-9.55,1.33-12.45,3.98-2.9,2.65-4.55,6.78-4.95,12.38-.3,2.2-.45,5.5-.45,9.9,.2,6.6,1.02,11.73,2.48,15.38,1.45,3.65,3.45,6.2,6,7.65,2.55,1.45,5.92,2.18,10.12,2.18,4.8,0,8.4-1.12,10.8-3.38,2.4-2.25,3.95-5.22,4.65-8.93,.7-3.7,1.05-8.55,1.05-14.55-.1-5.7-.43-10.15-.98-13.35-.55-3.2-1.85-5.8-3.9-7.8-2.05-2-5.23-3.1-9.52-3.3Z" fill="#191919"/><path d="M349.87,27.15v4.35l-.15,14.7c-.2,14.6-.3,25.5-.3,32.7,0,13.5,.2,23.5,.6,30-.5,.7-1.53,1.17-3.08,1.42-1.55,.25-3.67,.38-6.38,.38-3.1,0-5.25-.05-6.45-.15-3.9-.2-7.2,.1-9.9,.9,.7-9.6,1.05-18.5,1.05-26.7,0-6-.2-15-.6-27-.4-13-.6-22.8-.6-29.4,0-10,.45-19.45,1.35-28.35l24.75,.45-.3,26.7Z" fill="#191919"/><path id="Heart" d="M420.48,47.44c-5.96-18.19-15.1-14.18-21.86-12.23s-7.8,9.48-9.55,9.32-3.36-4.78-4.87-7.6c-4.74-8.87-20.28-2.14-24.46,4.83-4.18,6.97-9.11,33.48-1.31,45.63,7.03,10.96,29,24.64,31.45,24.64s23.56-16.03,29.08-22.94c6.42-8.03,7.49-23.47,1.53-41.66Zm-21.16,31.41c-2.77,3.14-5.91,4.83-10.44,7.88-4.33-2.59-6.75-3.14-9.74-7.08s-5.66-17.08,.07-19.37,8.17,4.16,10.46,4.16c0,0,.15,.04,1.39,.02,4.76-.09,6.51-6.83,10.17-2.83s.86,14.09-1.9,17.22Z" fill="#191919"/><path d="M460.87,62.1c2.3-12.8,4.5-21.95,6.6-27.45l7.65-.15c3.8-.2,6.75-.3,8.85-.3,3.4,0,6.05,.1,7.95,.3-2.3,6.4-4.35,13.15-6.15,20.25-1.8,7.1-3.9,16.25-6.3,27.45-2.8,12.8-5,22.2-6.6,28.2-3.5,.6-7.8,.9-12.9,.9l-19.5-.3c-4.8-29.2-10.2-55-16.2-77.4,2.6,.5,5.5,.75,8.7,.75,2.1,0,3.7-.05,4.8-.15l5.1-.15c2.1,0,4.45,.15,7.05,.45l3.15,18.3c1.7,11.3,3.25,20.05,4.65,26.25,1-4.7,2.05-10.35,3.15-16.95Z" fill="#191919"/><path d="M517.65,83.77c.25,1.55,.92,3.18,2.03,4.88,.8,1.5,1.85,2.65,3.15,3.45,1.3,.8,2.65,1.2,4.05,1.2,2.1,0,3.8-1.12,5.1-3.38,1.3-2.25,1.85-5.57,1.65-9.98,2.9,.4,6,.5,9.3,.3l14.1,.75c0,4.5-.33,9.05-.97,13.65-.65,4.6-1.88,8.1-3.67,10.5-2,2.8-4.88,4.73-8.62,5.77s-8.13,1.58-13.12,1.58c-1.9,0-4.55-.1-7.95-.3-1.6-.1-3.95-.15-7.05-.15-3.1-.4-6.2-1.5-9.3-3.3-4.8-3.8-8.35-9.2-10.65-16.2-2.3-7-3.45-14.6-3.45-22.8s1.2-16.5,3.6-23.7c2-4.5,5.7-8,11.1-10.5,5.4-2.5,11.4-3.75,18-3.75,3.6,0,7.1,.4,10.5,1.2,7.7,1.5,13.32,5.13,16.88,10.88,3.55,5.75,5.33,12.63,5.33,20.62,0,1.3-.1,3.55-.3,6.75-1.9,.5-6.25,.97-13.05,1.42-6.8,.45-13.15,.67-19.05,.67h-8.1v3.15c.1,3.3,.27,5.73,.52,7.27Zm10.12-35.62c-3.5,0-6,.8-7.5,2.4-1.5,1.6-2.4,3.85-2.7,6.75-.1,.4-.15,.85-.15,1.35,0,.6,.3,.95,.9,1.05,.6,.1,2.1,.1,4.5,0h6.6l4.5,.15h1.95c.3,.1,.5,.1,.6,0,.1-.1,.15-.3,.15-.6v-.6c0-2.1-.38-3.95-1.12-5.55-.75-1.6-1.78-2.75-3.08-3.45l-.6-.15c-1.5-.9-2.85-1.35-4.05-1.35Z" fill="#191919"/></g><g id="Foam"><path d="M192.67,32.2c-.05-3.13-2.59-5.65-5.73-5.65-1.73,0-3.26,.78-4.31,1.99-.37-.08-.76-.13-1.17-.13-.51,0-.99,.07-1.42,.19-1.43-1.26-3.3-2.04-5.36-2.04-1.93,0-3.7,.68-5.1,1.81-.48-.21-1.05-.33-1.66-.33-.49,0-.94,.08-1.35,.22-.73-.91-1.83-1.5-3.09-1.5-1.73,0-3.19,1.11-3.73,2.66-.88-.36-1.83-.56-2.84-.56-1.4,0-2.72,.39-3.84,1.06-.96-.63-2.62-1.06-4.53-1.06-2.98,0-5.39,1.03-5.39,2.29,0,.25,.12,.49,.29,.71-.88,.48-1.45,1.27-1.45,2.17,0,1.46,1.5,2.64,3.34,2.64,.01,0,.03,0,.04,0,.61,.95,1.85,1.61,3.3,1.61,.3,0,.6-.04,.88-.09,.8,3.33,3.78,5.8,7.35,5.8,2.03,0,3.87-.81,5.23-2.11,.74,.37,1.57,.58,2.46,.58,1.73,0,3.28-.79,4.29-2.03,1.48,1.49,3.52,2.42,5.79,2.42,1.28,0,2.49-.3,3.57-.83,.84,1.3,2.3,2.16,3.97,2.16,2.62,0,4.74-2.12,4.74-4.74,0-.5-.1-.97-.24-1.42,.08,0,.16,.01,.24,.01,1.72,0,3.26-.76,4.31-1.96,.38,.24,.83,.38,1.33,.38,1.29,0,2.33-.95,2.33-2.12s-1-2.07-2.24-2.11Z" fill="#ededed"/><path d="M143.19,36.03c.09-.06,.16-.13,.26-.18-.18-.23-.29-.46-.29-.71,0-1.27,2.41-2.29,5.39-2.29,1.9,0,3.57,.42,4.53,1.06,1.13-.67,2.44-1.06,3.84-1.06,1,0,1.96,.2,2.84,.56,.55-1.54,2-2.66,3.73-2.66,1.26,0,2.36,.59,3.09,1.5,.41-.14,.86-.22,1.35-.22,.61,0,1.18,.12,1.66,.33,1.39-1.13,3.16-1.81,5.1-1.81,2.06,0,3.93,.78,5.36,2.04,.44-.12,.92-.19,1.42-.19,.41,0,.8,.05,1.17,.13,1.05-1.21,2.58-1.99,4.31-1.99,3.14,0,5.68,2.52,5.73,5.65,.23,0,.44,.05,.64,.11,.93-.28,1.6-1.07,1.6-2,0-1.14-1-2.07-2.24-2.11-.05-3.13-2.59-5.65-5.73-5.65-1.73,0-3.26,.78-4.31,1.99-.37-.08-.76-.13-1.17-.13-.51,0-.99,.07-1.42,.19-1.43-1.26-3.3-2.04-5.36-2.04-1.93,0-3.7,.68-5.1,1.81-.48-.21-1.05-.33-1.66-.33-.49,0-.94,.08-1.35,.22-.73-.91-1.83-1.5-3.09-1.5-1.73,0-3.19,1.11-3.73,2.66-.88-.36-1.83-.56-2.84-.56-1.4,0-2.72,.39-3.84,1.06-.96-.63-2.62-1.06-4.53-1.06-2.98,0-5.39,1.03-5.39,2.29,0,.25,.12,.49,.29,.71-.88,.48-1.45,1.27-1.45,2.17,0,.81,.47,1.52,1.2,2.01Z" fill="#f9f9f9"/><g><path d="M143.44,30.85c-.06-.08-.1-.15-.14-.23-.07,.14-.11,.28-.13,.42,.09-.06,.17-.13,.27-.19Z" fill="#e5e5e5"/><path d="M192.59,35.43c-.49,0-.95-.14-1.33-.38-1.05,1.2-2.59,1.96-4.31,1.96-.08,0-.16,0-.24-.01,.1,.32,.17,.66,.2,1.01,.01,0,.03,0,.04,0,1.72,0,3.26-.76,4.31-1.96,.38,.24,.83,.38,1.33,.38,1.29,0,2.33-.95,2.33-2.12,0-.17-.03-.34-.07-.5-.25,.93-1.16,1.62-2.26,1.62Z" fill="#e5e5e5"/></g><g><path d="M192.59,34.43c-.49,0-.95-.14-1.33-.38-1.05,1.2-2.59,1.96-4.31,1.96-.08,0-.16,0-.24-.01,.14,.45,.24,.92,.24,1.42,0,.2-.03,.39-.06,.59,.02,0,.04,0,.06,0,1.72,0,3.26-.76,4.31-1.96,.38,.24,.83,.38,1.33,.38,1.29,0,2.33-.95,2.33-2.12,0-.36-.11-.7-.29-1-.39,.66-1.16,1.12-2.04,1.12Z" fill="#d6d6d6"/><path d="M182.21,42.16c-1.66,0-3.12-.86-3.97-2.16-1.08,.53-2.29,.83-3.57,.83-2.26,0-4.31-.93-5.79-2.42-1.02,1.24-2.56,2.03-4.29,2.03-.88,0-1.72-.21-2.46-.58-1.36,1.3-3.2,2.11-5.23,2.11-3.57,0-6.56-2.48-7.35-5.8-.28,.05-.57,.09-.88,.09-1.45,0-2.69-.66-3.3-1.61-.01,0-.03,0-.04,0-1.38,0-2.57-.66-3.08-1.61-.16,.3-.26,.63-.26,.97,0,1.46,1.5,2.64,3.34,2.64,.01,0,.03,0,.04,0,.61,.95,1.85,1.61,3.3,1.61,.3,0,.6-.04,.88-.09,.8,3.33,3.78,5.8,7.35,5.8,2.03,0,3.87-.81,5.23-2.11,.74,.37,1.57,.58,2.46,.58,1.73,0,3.28-.79,4.29-2.03,1.48,1.49,3.52,2.42,5.79,2.42,1.28,0,2.49-.3,3.57-.83,.84,1.3,2.3,2.16,3.97,2.16,2.62,0,4.74-2.12,4.74-4.74,0-.33-.05-.65-.12-.96-.48,2.11-2.36,3.69-4.61,3.69Z" fill="#d6d6d6"/></g></g></g></svg>