<?xml version="1.0" encoding="UTF-8"?><svg id="Layer_2" xmlns="http://www.w3.org/2000/svg" viewBox="0 0 63.64 31.62"><g id="Logo"><path d="M11.18,24.37C-1.09,16.47-6.53,7.75,12.15,5.82S49.94,8.75,54.42,1.52c4.47-7.23,15.33,13.3,4.7,19.47-10.64,6.18-24.34,18.55-47.93,3.37Z" fill="#dae3e8"/><path d="M48.43,23.8c.92,0,.37-1.03-.09-2.4-.46-1.38-.14-5.08,.58-8.58s0-5.85,0-5.85h-5.01s-.72,2.34,0,5.85,1.04,7.21,.58,8.58c-.46,1.38-1.01,2.4-.09,2.4" fill="#faffff"/><path d="M48.43,23.8c.92,0,.37-1.03-.09-2.4-.46-1.38-.14-5.08,.58-8.58,.39-1.92,.36-3.49,.24-4.52h-5.49c-.12,1.03-.15,2.6,.24,4.52,.72,3.5,1.04,7.21,.58,8.58-.46,1.38-1.01,2.4-.09,2.4" fill="#e5a005"/><path d="M46.41,23.8c-.13-1.8-.62-4.97-1.23-8.06-.72-3.66-.11-5.61,.63-7.45h-2.15c-.12,1.03-.15,2.6,.24,4.52,.72,3.5,1.04,7.21,.58,8.58-.46,1.38-1.01,2.4-.09,2.4" fill="#d69209"/><path d="M48.43,23.8c.92,0,.37-1.03-.09-2.4-.46-1.38-.14-5.08,.58-8.58,.39-1.92,.36-3.49,.24-4.52h-1.14c.69,5.21-.36,11.58-1.08,15.51" fill="#f7bc46" opacity=".5"/><path d="M52.59,13.22h-4.52s-.81,2.82-.81,3.78c0,4.18,2.57,4.18,2.57,4.18h.99s2.57,0,2.57-4.18c0-.96-.81-3.78-.81-3.78Z" fill="#efefef"/><path d="M51.69,23.5c-.76,0-1.03-.25-1.03-.9s.17-1.41,.17-1.41h-1.01s.17,.77,.17,1.41-.27,.9-1.03,.9" fill="#d9f7ff"/><path d="M47.27,17c0,4.18,2.57,4.18,2.57,4.18h.99s2.57,0,2.57-4.18c0-.68-.4-2.26-.64-3.15h-4.87c-.24,.89-.64,2.48-.64,3.15Z" fill="#2f2234"/><path d="M50.34,23.7c.18-.3,.29-.66,.33-1.01,0-.03,0-.07,0-.1,0-.13,0-.27,.02-.41-.02-.41-.13-.77-.31-1h-.54s.17,.77,.17,1.41-.27,.9-1.03,.9" fill="#faffff"/><path d="M53.41,17c0-.11-.01-.26-.03-.42,0,0-.45,2.13-3.04,2.13s-3.04-2.13-3.04-2.13c-.02,.16-.03,.3-.03,.42,0,4.18,2.57,4.18,2.57,4.18h.99s2.57,0,2.57-4.18Z" fill="#192026"/><path d="M51.75,20.91c.74-.41,1.65-1.42,1.65-3.91,0-.68-.4-2.26-.64-3.15h-1.81c.73,1.95,1.43,4.71,.79,7.06Z" fill="#423549" opacity=".5"/><g id="Foam"><path d="M52.56,13.16c0-.28-.23-.51-.52-.51-.16,0-.3,.07-.39,.18-.03,0-.07-.01-.11-.01-.05,0-.09,0-.13,.02-.13-.11-.3-.19-.49-.19-.18,0-.34,.06-.46,.16-.04-.02-.09-.03-.15-.03-.04,0-.09,0-.12,.02-.07-.08-.17-.14-.28-.14-.16,0-.29,.1-.34,.24-.08-.03-.17-.05-.26-.05-.13,0-.25,.04-.35,.1-.09-.06-.24-.1-.41-.1-.27,0-.49,.09-.49,.21,0,.02,.01,.04,.03,.06-.08,.04-.13,.12-.13,.2,0,.13,.14,.24,.3,.24h0c.06,.09,.17,.15,.3,.15,.03,0,.05,0,.08,0,.07,.3,.34,.53,.67,.53,.18,0,.35-.07,.47-.19,.07,.03,.14,.05,.22,.05,.16,0,.3-.07,.39-.18,.13,.14,.32,.22,.52,.22,.12,0,.23-.03,.32-.08,.08,.12,.21,.2,.36,.2,.24,0,.43-.19,.43-.43,0-.05,0-.09-.02-.13h.02c.16,0,.3-.07,.39-.18,.03,.02,.08,.03,.12,.03,.12,0,.21-.09,.21-.19s-.09-.19-.2-.19Z" fill="#ededed"/><path d="M48.08,13.51s.01-.01,.02-.02c-.02-.02-.03-.04-.03-.06,0-.11,.22-.21,.49-.21,.17,0,.32,.04,.41,.1,.1-.06,.22-.1,.35-.1,.09,0,.18,.02,.26,.05,.05-.14,.18-.24,.34-.24,.11,0,.21,.05,.28,.14,.04-.01,.08-.02,.12-.02,.06,0,.11,.01,.15,.03,.13-.1,.29-.16,.46-.16,.19,0,.36,.07,.49,.19,.04-.01,.08-.02,.13-.02,.04,0,.07,0,.11,.01,.09-.11,.23-.18,.39-.18,.28,0,.51,.23,.52,.51,.02,0,.04,0,.06,.01,.08-.03,.15-.1,.15-.18,0-.1-.09-.19-.2-.19,0-.28-.23-.51-.52-.51-.16,0-.3,.07-.39,.18-.03,0-.07-.01-.11-.01-.05,0-.09,0-.13,.02-.13-.11-.3-.19-.49-.19-.18,0-.34,.06-.46,.16-.04-.02-.09-.03-.15-.03-.04,0-.09,0-.12,.02-.07-.08-.17-.14-.28-.14-.16,0-.29,.1-.34,.24-.08-.03-.17-.05-.26-.05-.13,0-.25,.04-.35,.1-.09-.06-.24-.1-.41-.1-.27,0-.49,.09-.49,.21,0,.02,.01,.04,.03,.06-.08,.04-.13,.12-.13,.2,0,.07,.04,.14,.11,.18Z" fill="#f9f9f9"/><g><path d="M48.1,13.04s0-.01-.01-.02c0,.01-.01,.02-.01,.04,0,0,.02-.01,.02-.02Z" fill="#e5e5e5"/><path d="M52.55,13.46s-.09-.01-.12-.03c-.1,.11-.23,.18-.39,.18h-.02s.02,.06,.02,.09h0c.16,0,.3-.07,.39-.18,.03,.02,.08,.03,.12,.03,.12,0,.21-.09,.21-.19,0-.02,0-.03,0-.05-.02,.08-.11,.15-.2,.15Z" fill="#e5e5e5"/></g><g><path d="M52.55,13.37s-.09-.01-.12-.03c-.1,.11-.23,.18-.39,.18h-.02s.02,.08,.02,.13c0,.02,0,.04,0,.05h0c.16,0,.3-.07,.39-.18,.03,.02,.08,.03,.12,.03,.12,0,.21-.09,.21-.19,0-.03,0-.06-.03-.09-.04,.06-.1,.1-.18,.1Z" fill="#d6d6d6"/><path d="M51.61,14.07c-.15,0-.28-.08-.36-.2-.1,.05-.21,.08-.32,.08-.21,0-.39-.08-.52-.22-.09,.11-.23,.18-.39,.18-.08,0-.16-.02-.22-.05-.12,.12-.29,.19-.47,.19-.32,0-.59-.22-.67-.53-.03,0-.05,0-.08,0-.13,0-.24-.06-.3-.15h0c-.13,0-.23-.06-.28-.15-.01,.03-.02,.06-.02,.09,0,.13,.14,.24,.3,.24h0c.06,.09,.17,.15,.3,.15,.03,0,.05,0,.08,0,.07,.3,.34,.53,.67,.53,.18,0,.35-.07,.47-.19,.07,.03,.14,.05,.22,.05,.16,0,.3-.07,.39-.18,.13,.14,.32,.22,.52,.22,.12,0,.23-.03,.32-.08,.08,.12,.21,.2,.36,.2,.24,0,.43-.19,.43-.43,0-.03,0-.06-.01-.09-.04,.19-.21,.33-.42,.33Z" fill="#d6d6d6"/></g></g><g id="Foam-2"><path d="M43.88,7.1c0-.43,.26-.78,.58-.78,.18,0,.33,.11,.44,.27,.04-.01,.08-.02,.12-.02,.05,0,.1,0,.15,.03,.15-.17,.34-.28,.55-.28,.2,0,.38,.09,.52,.25,.05-.03,.11-.05,.17-.05,.05,0,.1,.01,.14,.03,.07-.13,.19-.21,.31-.21,.18,0,.33,.15,.38,.37,.09-.05,.19-.08,.29-.08,.14,0,.28,.05,.39,.15,.1-.09,.27-.15,.46-.15,.3,0,.55,.14,.55,.32,0,.03-.01,.07-.03,.1,.09,.07,.15,.18,.15,.3,0,.2-.15,.36-.34,.36h0c-.06,.13-.19,.22-.34,.22-.03,0-.06,0-.09-.01-.08,.46-.39,.8-.75,.8-.21,0-.39-.11-.53-.29-.08,.05-.16,.08-.25,.08-.18,0-.33-.11-.44-.28-.15,.21-.36,.33-.59,.33-.13,0-.25-.04-.36-.11-.09,.18-.23,.3-.4,.3-.27,0-.48-.29-.48-.65,0-.07,.01-.13,.02-.2h-.02c-.18,0-.33-.1-.44-.27-.04,.03-.09,.05-.14,.05-.13,0-.24-.13-.24-.29,0-.16,.1-.29,.23-.29Z" fill="#ededed"/><path d="M48.93,7.63s-.02-.02-.03-.02c.02-.03,.03-.06,.03-.1,0-.17-.25-.32-.55-.32-.19,0-.36,.06-.46,.15-.11-.09-.25-.15-.39-.15-.1,0-.2,.03-.29,.08-.06-.21-.2-.37-.38-.37-.13,0-.24,.08-.31,.21-.04-.02-.09-.03-.14-.03-.06,0-.12,.02-.17,.05-.14-.16-.32-.25-.52-.25-.21,0-.4,.11-.55,.28-.04-.02-.09-.03-.15-.03-.04,0-.08,0-.12,.02-.11-.17-.26-.27-.44-.27-.32,0-.58,.35-.58,.78-.02,0-.04,0-.07,.02-.09-.04-.16-.15-.16-.28,0-.16,.1-.29,.23-.29,0-.43,.26-.78,.58-.78,.18,0,.33,.11,.44,.27,.04-.01,.08-.02,.12-.02,.05,0,.1,0,.15,.03,.15-.17,.34-.28,.55-.28,.2,0,.38,.09,.52,.25,.05-.03,.11-.05,.17-.05,.05,0,.1,.01,.14,.03,.07-.13,.19-.21,.31-.21,.18,0,.33,.15,.38,.37,.09-.05,.19-.08,.29-.08,.14,0,.28,.05,.39,.15,.1-.09,.27-.15,.46-.15,.3,0,.55,.14,.55,.32,0,.03-.01,.07-.03,.1,.09,.07,.15,.18,.15,.3,0,.11-.05,.21-.12,.28Z" fill="#f9f9f9"/><g><path d="M48.9,6.92s.01-.02,.01-.03c0,.02,.01,.04,.01,.06,0,0-.02-.02-.03-.03Z" fill="#e5e5e5"/><path d="M43.89,7.55c.05,0,.1-.02,.14-.05,.11,.17,.26,.27,.44,.27,0,0,.02,0,.02,0-.01,.04-.02,.09-.02,.14h0c-.18,0-.33-.1-.44-.27-.04,.03-.09,.05-.14,.05-.13,0-.24-.13-.24-.29,0-.02,0-.05,0-.07,.03,.13,.12,.22,.23,.22Z" fill="#e5e5e5"/></g><g><path d="M43.89,7.41c.05,0,.1-.02,.14-.05,.11,.17,.26,.27,.44,.27,0,0,.02,0,.02,0-.01,.06-.02,.13-.02,.2,0,.03,0,.05,0,.08h0c-.18,0-.33-.1-.44-.27-.04,.03-.09,.05-.14,.05-.13,0-.24-.13-.24-.29,0-.05,.01-.1,.03-.14,.04,.09,.12,.15,.21,.15Z" fill="#d6d6d6"/><path d="M44.95,8.48c.17,0,.32-.12,.4-.3,.11,.07,.23,.11,.36,.11,.23,0,.44-.13,.59-.33,.1,.17,.26,.28,.44,.28,.09,0,.17-.03,.25-.08,.14,.18,.33,.29,.53,.29,.36,0,.67-.34,.75-.8,.03,0,.06,.01,.09,.01,.15,0,.27-.09,.34-.22h0c.14,0,.26-.09,.31-.22,.02,.04,.03,.09,.03,.13,0,.2-.15,.36-.34,.36h0c-.06,.13-.19,.22-.34,.22-.03,0-.06,0-.09-.01-.08,.46-.39,.8-.75,.8-.21,0-.39-.11-.53-.29-.08,.05-.16,.08-.25,.08-.18,0-.33-.11-.44-.28-.15,.21-.36,.33-.59,.33-.13,0-.25-.04-.36-.11-.09,.18-.23,.3-.4,.3-.27,0-.48-.29-.48-.65,0-.05,0-.09,.01-.13,.05,.29,.24,.51,.47,.51Z" fill="#d6d6d6"/></g></g><path d="M8.45,24.51c1.87-4.05,2.32-8.61,1.25-12.94-.15-.62-1.11-.36-.96,.27,1,4.18,2.75,8.15,5.18,11.7,.26,.39,.95,.27,.93-.25l-.23-7.78c-.04-1.26-.09-2.53-.11-3.79-.02-1.02,.05-2.47,1.32-2.66,.63-.09,.36-1.06-.27-.96-2.71,.4-2.04,4.31-1.98,6.17l.26,9.01,.93-.25c-2.38-3.48-4.1-7.36-5.08-11.46l-.96,.27c1,4.05,.61,8.38-1.15,12.17-.27,.58,.59,1.09,.86,.5h0Z"/><path d="M16.46,17.09c-1.16,1.9-.52,4.56,1.33,5.77,.54,.35,1.04-.51,.5-.86-1.41-.92-1.84-2.98-.98-4.41,.34-.55-.53-1.05-.86-.5h0Z"/><path d="M17.59,15.34c.64,0,.64-1,0-1s-.64,1,0,1h0Z"/><path d="M22.56,16.75c-1.02-.28-2.1,.02-2.89,.71s-1.11,1.74-.92,2.77,.92,1.93,1.88,2.29c.79,.3,1.75,.11,2.52-.16,.88-.31,1.91-.85,2.33-1.73,.28-.58-.58-1.08-.86-.5-.26,.54-.85,.89-1.41,1.14-.59,.27-1.3,.46-1.95,.38-1.35-.16-2.03-2.12-1.18-3.18,.52-.65,1.41-.97,2.22-.75,.62,.17,.89-.79,.27-.96h0Z"/><path d="M24.63,13.23c.22,3.15,.11,6.33-.37,9.45-.09,.62,.76,.89,.96,.27,.73-2.22,1.89-4.27,3.4-6.05l-.84-.49c-.38,1.7-.79,3.73,.19,5.31,.75,1.21,2.27,2.09,3.68,1.53,.59-.23,.33-1.2-.27-.96-1.09,.43-2.2-.33-2.68-1.31-.65-1.32-.25-2.95,.05-4.31,.1-.45-.49-.89-.84-.49-1.64,1.91-2.88,4.1-3.66,6.49l.96,.27c.49-3.22,.63-6.47,.4-9.72-.05-.64-1.05-.64-1,0h0Z"/><path d="M31.53,16.63c-.55-.02-1.04,.17-1.46,.52-.38,.32-.73,.77-.95,1.21-.51,1.02-.43,2.28,.53,3,.77,.58,1.94,.64,2.74,.08,.86-.61,1.28-1.68,1.12-2.72-.07-.49-.25-.98-.59-1.34s-.81-.54-1.26-.71c-.25-.09-.55,.11-.62,.35-.08,.28,.1,.52,.35,.62,.2,.07,.24,.09,.41,.17,.07,.03,.13,.07,.2,.11,.02,.01,.05,.03,.07,.05,.08,.05-.05-.05,.04,.03,.04,.04,.08,.08,.13,.12,.09,.08-.04-.08,.02,.02,.01,.02,.03,.05,.04,.07,.04,.06,.07,.13,.1,.19-.04-.09,0,.01,0,.03,.02,.06,.04,.11,.05,.17,.17,.63,.06,1.32-.39,1.8-.23,.24-.5,.38-.78,.42,0,0-.14,0-.19,0s-.1,0-.16,0c-.01,0-.1-.01-.02,0-.09-.01-.17-.03-.25-.06-.04-.01-.08-.03-.12-.04-.03-.01-.03-.01,0,0-.03-.01-.06-.03-.09-.04-.16-.08-.24-.14-.33-.23-.1-.1-.18-.2-.23-.32-.15-.35-.11-.73,.01-1.1,.14-.41,.41-.75,.71-1.04,.28-.28,.51-.39,.91-.37,.27,.01,.5-.24,.5-.5,0-.28-.23-.49-.5-.5h0Z"/><path d="M34.89,12.81c-.66,3.21-1.11,6.46-1.36,9.72-.05,.64,.95,.64,1,0,.24-3.18,.68-6.33,1.32-9.46,.13-.63-.83-.9-.96-.27h0Z"/><path d="M35.71,19.65c.82,.13,1.67,.24,2.43-.17,.57-.3,1.01-.9,.97-1.56-.07-1.27-1.67-1.91-2.72-1.36-1.2,.63-1.46,2.25-1.07,3.44,.41,1.28,1.47,2.32,2.76,2.69,1.5,.43,3.21-.11,4.21-1.31,.41-.49-.29-1.2-.71-.71-1.27,1.52-3.64,1.54-4.84-.07-.52-.7-.79-1.67-.44-2.5,.14-.33,.41-.68,.79-.74,.3-.05,.65,.06,.86,.28,.28,.29,.16,.65-.14,.88-.51,.39-1.24,.26-1.83,.17-.27-.04-.54,.07-.62,.35-.07,.24,.08,.57,.35,.62h0Z"/></g></svg>